<svg version="1.1" viewBox="0.0 0.0 960.0 192.0" fill="none" stroke="none" stroke-linecap="square" stroke-miterlimit="10" xmlns:xlink="http://www.w3.org/1999/xlink" xmlns="http://www.w3.org/2000/svg"><clipPath id="p.0"><path d="m0 0l960.0 0l0 192.0l-960.0 0l0 -192.0z" clip-rule="nonzero"/></clipPath><g clip-path="url(#p.0)"><path fill="#ffffff" d="m0 0l960.0 0l0 192.0l-960.0 0z" fill-rule="evenodd"/><path fill="#000000" fill-opacity="0.0" d="m107.656166 29.581102l826.3307 0l0 26.708662l-826.3307 0z" fill-rule="evenodd"/><path fill="#000000" d="m149.9843 130.7411l-2.578125 0l0 -64.96876l-19.968758 9.328125l0 -2.8125l21.656258 -9.796875l0.890625 0l0 68.25001zm69.1875 -29.953133l-33.65625 0l0 -2.53125l33.65625 0l0 2.53125zm62.10936 5.0625q-0.046875 2.953125 -0.515625 6.03125q-0.46875 3.0625 -1.453125 5.921875q-0.984375 2.859375 -2.5625 5.390625q-1.5625 2.53125 -3.796875 4.40625q-2.21875 1.8750076 -5.109375 2.9843826q-2.875 1.09375 -6.53125 1.09375q-2.296875 0 -4.640625 -0.5625q-2.3437347 -0.5625 -4.5312347 -1.640625q-2.171875 -1.078125 -4.03125 -2.6406326q-1.84375 -1.578125 -3.15625 -3.59375l0 7.5000076l-2.53125 0l0 -72.00001l2.53125 0l0 29.90625q1.265625 -2.15625 3.046875 -3.9375q1.78125 -1.78125 3.890625 -3.015625q2.109375 -1.25 4.4687347 -1.921875q2.375 -0.6875 4.859375 -0.6875q3.703125 0 6.625 1.078125q2.9375 1.078125 5.140625 2.9375q2.203125 1.84375 3.765625 4.375q1.578125 2.53125 2.578125 5.390625q1.015625 2.859375 1.453125 5.9375q0.453125 3.0625 0.5 6.0625l0 0.984375zm-2.625 -0.984375q-0.046875 -2.578125 -0.421875 -5.3125q-0.375 -2.75 -1.203125 -5.328125q-0.8125 -2.578125 -2.125 -4.875q-1.3125 -2.296875 -3.265625 -4.0q-1.9375 -1.71875 -4.5 -2.71875q-2.546875 -1.015625 -5.875 -1.015625q-2.8125 0 -5.3906097 0.890625q-2.578125 0.890625 -4.71875 2.53125q-2.125 1.640625 -3.75 3.921875q-1.609375 2.265625 -2.453125 4.984375l0 24.5625q0.890625 2.578125 2.640625 4.578125q1.765625 1.984375 3.96875 3.34375q2.203125 1.359375 4.7343597 2.0468826q2.53125 0.671875 5.0625 0.671875q3.28125 0 5.859375 -1.0q2.578125 -1.0156326 4.46875 -2.7500076q1.90625 -1.734375 3.234375 -4.03125q1.34375 -2.296875 2.15625 -4.875q0.828125 -2.578125 1.171875 -5.296875q0.359375 -2.71875 0.40625 -5.34375l0 -0.984375zm22.078125 -24.84375l21.140625 0l0 48.187508l18.0 0l0 2.53125l-39.140625 0l0 -2.53125l18.609375 0l0 -45.656258l-18.609375 0l0 -2.53125zm16.453125 -14.4375q0 -0.65625 0.140625 -1.28125q0.140625 -0.640625 0.515625 -1.125q0.375 -0.5 1.0 -0.78125q0.640625 -0.28125 1.625 -0.28125q0.9375 0 1.5625 0.28125q0.640625 0.28125 1.03125 0.78125q0.40625 0.484375 0.5625 1.125q0.171875 0.625 0.171875 1.28125q0 1.265625 -0.734375 2.296875q-0.71875 1.03125 -2.59375 1.03125q-1.921875 0 -2.609375 -1.03125q-0.671875 -1.03125 -0.671875 -2.296875zm56.8125 0.75l-0.046875 13.6875l18.28125 0l0 2.578125l-18.28125 0l0 36.0q0.09375 2.953125 1.046875 4.953125q0.96875 1.984375 2.65625 3.234375q1.6875 1.2343826 3.953125 1.7968826q2.28125 0.5625 5.0 0.5625q3.796875 0 7.453125 -0.421875l0.515625 2.390625q-1.921875 0.375 -3.84375 0.46875q-1.921875 0.09375 -3.890625 0.09375q-3.375 0 -6.1875 -0.6875q-2.8125 -0.671875 -4.875 -2.21875q-2.0625 -1.5468826 -3.234375 -4.0312576q-1.171875 -2.484375 -1.265625 -6.140625l0 -36.0l-14.90625 0l0 -2.578125l14.90625 0l0 -13.6875l2.71875 0zm75.65625 34.453125l-33.65625 0l0 -2.53125l33.65625 0l0 2.53125zm27.28125 15.28125l1.96875 9.984375l2.484375 -9.984375l9.046875 -36.046875l2.34375 0l9.046875 36.046875l2.4375 9.984375l2.015625 -9.984375l8.2500305 -36.046875l2.671875 0l-11.6719055 50.718758l-2.296875 0l-9.984375 -38.109383l-1.640625 -8.0625l-1.78125 8.0625l-9.84375 38.109383l-2.296875 0l-11.671875 -50.718758l2.671875 0l8.25 36.046875zm170.81253 -23.859375q1.21875 -2.8125 3.0625 -5.21875q1.859375 -2.421875 4.265625 -4.15625q2.421875 -1.734375 5.328125 -2.734375q2.90625 -1.015625 6.234375 -1.015625q4.359375 0 7.515625 1.40625q3.171875 1.40625 5.234375 3.921875q2.0625 2.5 3.046875 5.96875q0.984375 3.46875 1.03125 7.546875l0.046875 32.812508l-2.578125 0l0 -32.812508q-0.046875 -3.5625 -0.875 -6.578125q-0.8125 -3.03125 -2.546875 -5.203125q-1.734375 -2.1875 -4.453125 -3.40625q-2.71875 -1.21875 -6.5625 -1.171875q-3.421875 0.046875 -6.515625 1.359375q-3.09375 1.3125 -5.578125 3.515625q-2.484375 2.203125 -4.21875 5.15625q-1.734375 2.953125 -2.4375 6.234375l0 32.906258l-2.578125 0l0 -50.718758l2.578125 0l0 12.1875l0 0zm53.34375 12.65625q0 -3.0 0.46875 -6.0625q0.46875 -3.078125 1.46875 -5.9375q1.015625 -2.859375 2.578125 -5.390625q1.578125 -2.53125 3.78125 -4.375q2.203125 -1.859375 5.125 -2.9375q2.9375 -1.078125 6.640625 -1.078125q2.484375 0 4.84375 0.6875q2.375 0.671875 4.484375 1.9375q2.109375 1.265625 3.890625 3.046875q1.78125 1.78125 3.046875 3.984375l0 -30.0l2.53125 0l0 72.00001l-2.53125 0l0 -7.5937576q-1.3125 2.0625 -3.171875 3.640625q-1.84375 1.5625076 -4.03125 2.6718826q-2.171875 1.09375 -4.515625 1.65625q-2.34375 0.5625 -4.640625 0.5625q-3.65625 0 -6.5625 -1.09375q-2.90625 -1.109375 -5.109375 -2.9843826q-2.203125 -1.875 -3.78125 -4.40625q-1.5625 -2.53125 -2.546875 -5.390625q-0.984375 -2.859375 -1.484375 -5.921875q-0.484375 -3.078125 -0.484375 -6.03125l0 -0.984375zm2.625 0.984375q0 2.578125 0.375 5.328125q0.375 2.734375 1.1875 5.3125q0.828125 2.578125 2.15625 4.875q1.34375 2.296875 3.234375 4.03125q1.90625 1.734375 4.453125 2.7500076q2.5625 1.0 5.890625 1.0q2.484375 0 4.984375 -0.671875q2.515625 -0.6875076 4.71875 -2.0000076q2.203125 -1.3125 3.953125 -3.25q1.765625 -1.953125 2.75 -4.4375l0 -25.078125q-0.890625 -2.71875 -2.53125 -4.9375q-1.640625 -2.234375 -3.78125 -3.828125q-2.125 -1.59375 -4.6875 -2.453125q-2.546875 -0.875 -5.3125 -0.875q-3.328125 0 -5.890625 1.015625q-2.546875 1.0 -4.5 2.71875q-1.9375 1.703125 -3.25 4.0q-1.3125 2.296875 -2.140625 4.875q-0.8125 2.578125 -1.21875 5.328125q-0.390625 2.734375 -0.390625 5.3125l0 0.984375zm77.578125 25.828133q-5.203125 0 -9.453125 -2.078125q-4.234375 -2.0937576 -7.265625 -5.6093826q-3.015625 -3.515625 -4.703125 -8.0625q-1.6875 -4.546875 -1.734375 -9.46875l0 -2.0625q0.046875 -4.734375 1.59375 -9.28125q1.546875 -4.546875 4.40625 -8.109375q2.859375 -3.5625 6.9375 -5.734375q4.078125 -2.1875 9.234375 -2.1875q4.59375 0 8.296875 1.734375q3.703125 1.734375 6.296875 4.71875q2.609375 2.96875 4.015625 6.90625q1.40625 3.9375 1.453125 8.296875l0 2.953125l-39.703125 0l0 0.703125l0 2.0625q0.046875 4.359375 1.546875 8.46875q1.5 4.09375 4.1875 7.265625q2.703125 3.15625 6.46875 5.0625q3.78125 1.8906326 8.421875 1.9375076q4.734375 0.046875 8.6875 -1.6406326q3.96875 -1.6875 7.015625 -5.34375l1.828125 1.265625q-3.234375 4.21875 -7.765625 6.2187576q-4.515625 1.984375 -9.765625 1.984375zm-0.984375 -50.062508q-4.21875 0 -7.59375 1.625q-3.375 1.609375 -5.84375 4.328125q-2.453125 2.71875 -3.984375 6.265625q-1.515625 3.53125 -1.984375 7.328125l36.9375 0l0 -0.609375q0 -3.75 -1.296875 -7.171875q-1.28125 -3.421875 -3.578125 -6.046875q-2.296875 -2.625 -5.53125 -4.171875q-3.234375 -1.546875 -7.125 -1.546875zm71.578125 -2.53125q1.6875 0 3.375 0.21875q1.6875 0.203125 3.234375 0.53125l-0.28125 2.390625q-1.359375 -0.234375 -3.03125 -0.4375q-1.65625 -0.21875 -3.296875 -0.21875q-3.890625 0 -7.578125 0.875q-3.671875 0.859375 -6.703125 2.859375q-3.015625 1.984375 -5.25 5.203125q-2.21875 3.203125 -3.25 7.84375l0.140625 32.390633l-2.90625 0l0 -50.718758l2.484375 0l0.28125 8.8125l0 3.234375q2.8125 -6.234375 8.671875 -9.625q5.859375 -3.40625 14.109375 -3.359375z" fill-rule="nonzero"/><path fill="#000000" fill-opacity="0.0" d="m548.49225 98.92793l0 0c0 -21.265137 17.23883 -38.503937 38.503967 -38.503937l0 0c10.211853 0 20.005493 4.0566483 27.22638 11.277542c7.220886 7.220886 11.277527 17.014511 11.277527 27.226395l0 0c0 21.265137 -17.23877 38.503937 -38.503906 38.503937l0 0c-21.265137 0 -38.503967 -17.2388 -38.503967 -38.503937z" fill-rule="evenodd"/><path stroke="#000000" stroke-width="2.0" stroke-linejoin="round" stroke-linecap="butt" d="m548.49225 98.92793l0 0c0 -21.265137 17.23883 -38.503937 38.503967 -38.503937l0 0c10.211853 0 20.005493 4.0566483 27.22638 11.277542c7.220886 7.220886 11.277527 17.014511 11.277527 27.226395l0 0c0 21.265137 -17.23877 38.503937 -38.503906 38.503937l0 0c-21.265137 0 -38.503967 -17.2388 -38.503967 -38.503937z" fill-rule="evenodd"/><path fill="#000000" fill-opacity="0.0" d="m599.63245 40.26627l0 26.551182" fill-rule="evenodd"/><path stroke="#000000" stroke-width="2.0" stroke-linejoin="round" stroke-linecap="butt" d="m599.63245 40.26627l0 26.551182" fill-rule="evenodd"/><path fill="#000000" fill-opacity="0.0" d="m567.3995 92.70748l32.44098 -26.110237" fill-rule="evenodd"/><path stroke="#000000" stroke-width="2.0" stroke-linejoin="round" stroke-linecap="butt" d="m567.3995 92.70748l32.44098 -26.110237" fill-rule="evenodd"/><path fill="#000000" fill-opacity="0.0" d="m567.1036 80.16709l0 38.33071" fill-rule="evenodd"/><path stroke="#000000" stroke-width="2.0" stroke-linejoin="round" stroke-linecap="butt" d="m567.1036 80.16709l0 38.33071" fill-rule="evenodd"/><path fill="#000000" fill-opacity="0.0" d="m567.223 105.23318l32.503967 26.614174" fill-rule="evenodd"/><path stroke="#000000" stroke-width="2.0" stroke-linejoin="round" stroke-linecap="butt" d="m567.223 105.23318l32.503967 26.614174" fill-rule="evenodd"/><path fill="#000000" fill-opacity="0.0" d="m599.5024 157.35289l0 -25.669296" fill-rule="evenodd"/><path stroke="#000000" stroke-width="2.0" stroke-linejoin="round" stroke-linecap="butt" d="m599.5024 157.35289l0 -25.669296" fill-rule="evenodd"/><path fill="#000000" fill-opacity="0.0" d="m527.4554 98.935715l39.149597 0" fill-rule="evenodd"/><path stroke="#000000" stroke-width="2.0" stroke-linejoin="round" stroke-linecap="butt" d="m527.4554 98.935715l39.149597 0" fill-rule="evenodd"/><path fill="#000000" d="m575.8014 118.70451l5.8586426 -7.577629l7.1588745 11.670052z" fill-rule="evenodd"/><path stroke="#000000" stroke-width="2.0" stroke-linejoin="round" stroke-linecap="butt" d="m575.8014 118.70451l5.8586426 -7.577629l7.1588745 11.670052z" fill-rule="evenodd"/></g></svg>